<svg xmlns="http://www.w3.org/2000/svg" width="576.847" height="192.823" viewBox="0 0 576.847 192.823">
  <g id="Download_on_the_App_Store_Badge_US-UK_RGB_blk_092917" transform="translate(0 0)">
    <g id="Group_10" data-name="Group 10" transform="translate(0 0)">
      <g id="Group_8" data-name="Group 8">
        <path id="Path_54" data-name="Path 54" d="M530.911,0H45.962c-1.768,0-3.514,0-5.277.01-1.476.01-2.94.038-4.43.061A63.7,63.7,0,0,0,26.6.923a32.129,32.129,0,0,0-9.163,3.022,31.034,31.034,0,0,0-7.8,5.682,30.169,30.169,0,0,0-5.68,7.815A31.821,31.821,0,0,0,.937,26.617a62.632,62.632,0,0,0-.864,9.651C.028,37.746.024,39.229,0,40.707V152.13c.024,1.5.028,2.947.073,4.444a62.631,62.631,0,0,0,.864,9.65A31.756,31.756,0,0,0,3.95,175.4a29.925,29.925,0,0,0,5.68,7.782,30.247,30.247,0,0,0,7.8,5.682,32.3,32.3,0,0,0,9.163,3.041,64.86,64.86,0,0,0,9.66.852c1.49.033,2.954.052,4.43.052,1.763.01,3.51.01,5.277.01H530.911c1.733,0,3.493,0,5.226-.01,1.469,0,2.975-.019,4.444-.052a64.009,64.009,0,0,0,9.641-.852,32.8,32.8,0,0,0,9.2-3.041,30.264,30.264,0,0,0,7.8-5.682,30.831,30.831,0,0,0,5.7-7.782,31.836,31.836,0,0,0,2.984-9.18,65.108,65.108,0,0,0,.895-9.65c.019-1.5.019-2.947.019-4.444.038-1.751.038-3.493.038-5.273V45.97c0-1.765,0-3.517-.038-5.263,0-1.478,0-2.961-.019-4.439a65.1,65.1,0,0,0-.895-9.651,31.9,31.9,0,0,0-2.984-9.175,31.171,31.171,0,0,0-13.492-13.5,32.624,32.624,0,0,0-9.2-3.022A62.879,62.879,0,0,0,540.58.071C539.111.047,537.6.019,536.136.01,534.4,0,532.643,0,530.911,0Z" transform="translate(0 0)" fill="#a6a6a6"/>
        <path id="Path_55" data-name="Path 55" d="M37.373,185.261c-1.469,0-2.9-.019-4.359-.052a61.162,61.162,0,0,1-9.01-.786,28.363,28.363,0,0,1-7.986-2.641,26.058,26.058,0,0,1-6.734-4.9,25.65,25.65,0,0,1-4.919-6.732,27.582,27.582,0,0,1-2.618-7.989,59.84,59.84,0,0,1-.8-9.039c-.031-1.017-.071-4.4-.071-4.4V37.363s.043-3.333.071-4.312a59.632,59.632,0,0,1,.8-9.024,27.745,27.745,0,0,1,2.62-8.012A25.9,25.9,0,0,1,9.255,9.276a26.828,26.828,0,0,1,6.76-4.929,28.07,28.07,0,0,1,7.97-2.622A60.672,60.672,0,0,1,33.026.934l4.35-.059h495.4l4.4.061a59.7,59.7,0,0,1,8.958.784,28.625,28.625,0,0,1,8.055,2.641,26.965,26.965,0,0,1,11.642,11.665,27.781,27.781,0,0,1,2.58,7.949,62.648,62.648,0,0,1,.838,9.1c.014,1.365.014,2.832.014,4.291.038,1.808.038,3.528.038,5.263V143.514c0,1.751,0,3.46-.038,5.183,0,1.568,0,3-.019,4.482a61.353,61.353,0,0,1-.824,8.935,27.666,27.666,0,0,1-2.6,8.05,26.416,26.416,0,0,1-4.9,6.68,26.092,26.092,0,0,1-6.746,4.929,28.256,28.256,0,0,1-8.041,2.65,60.463,60.463,0,0,1-9.011.786c-1.412.033-2.89.052-4.326.052l-5.225.01Z" transform="translate(3.335 3.344)"/>
      </g>
      <g id="_Group_" data-name="&lt;Group&gt;" transform="translate(48.068 42.037)">
        <g id="_Group_2" data-name="&lt;Group&gt;">
          <g id="_Group_3" data-name="&lt;Group&gt;">
            <path id="_Path_" data-name="&lt;Path&gt;" d="M81.3,44.476a23.856,23.856,0,0,1,11.36-20.015,24.419,24.419,0,0,0-19.24-10.4C65.328,13.21,57.481,18.9,53.356,18.9c-4.2,0-10.556-4.759-17.395-4.619A25.623,25.623,0,0,0,14.4,27.434C5.076,43.576,12.03,67.3,20.96,80.345c4.468,6.389,9.69,13.526,16.523,13.272,6.686-.277,9.184-4.264,17.255-4.264,8,0,10.339,4.264,17.311,4.1,7.175-.116,11.7-6.417,16.007-12.867a52.843,52.843,0,0,0,7.32-14.908A23.052,23.052,0,0,1,81.3,44.476Z" transform="translate(-9.972 11.348)" fill="#fff"/>
            <path id="_Path_2" data-name="&lt;Path&gt;" d="M34.441,25.547A23.488,23.488,0,0,0,39.814,8.72a23.9,23.9,0,0,0-15.462,8,22.35,22.35,0,0,0-5.513,16.2A19.76,19.76,0,0,0,34.441,25.547Z" transform="translate(23.722 -8.72)" fill="#fff"/>
          </g>
        </g>
        <g id="Group_9" data-name="Group 9" transform="translate(117.89 44.112)">
          <path id="Path_56" data-name="Path 56" d="M72.389,61.76H49.572l-5.48,16.18H34.427L56.04,18.078H66.081L87.693,77.94H77.864ZM51.935,54.294H70.021L61.105,28.035h-.25Z" transform="translate(-34.427 -17.08)" fill="#fff"/>
          <path id="Path_57" data-name="Path 57" d="M87.743,43.635c0,13.563-7.259,22.276-18.214,22.276A14.8,14.8,0,0,1,55.8,58.275H55.59V79.893H46.631V21.811H55.3V29.07h.165a15.482,15.482,0,0,1,13.9-7.716C80.441,21.354,87.743,30.11,87.743,43.635Zm-9.208,0C78.535,34.8,73.968,28.99,67,28.99c-6.845,0-11.449,5.932-11.449,14.645,0,8.794,4.6,14.683,11.449,14.683C73.968,58.318,78.535,52.551,78.535,43.635Z" transform="translate(12.199 -4.595)" fill="#fff"/>
          <path id="Path_58" data-name="Path 58" d="M97.708,43.635c0,13.563-7.259,22.276-18.214,22.276a14.8,14.8,0,0,1-13.732-7.636h-.207V79.893H56.6V21.811h8.671V29.07h.165a15.482,15.482,0,0,1,13.9-7.716C90.406,21.354,97.708,30.11,97.708,43.635Zm-9.208,0c0-8.836-4.566-14.645-11.534-14.645-6.845,0-11.449,5.932-11.449,14.645,0,8.794,4.6,14.683,11.449,14.683,6.967,0,11.534-5.767,11.534-14.683Z" transform="translate(50.27 -4.595)" fill="#fff"/>
          <path id="Path_59" data-name="Path 59" d="M78.979,62.052c.664,5.936,6.431,9.834,14.311,9.834,7.551,0,12.983-3.9,12.983-9.25,0-4.646-3.276-7.428-11.035-9.335L87.48,51.431c-10.992-2.655-16.1-7.8-16.1-16.138,0-10.328,9-17.423,21.782-17.423,12.649,0,21.321,7.094,21.612,17.423h-9.043c-.541-5.974-5.48-9.58-12.7-9.58s-12.155,3.648-12.155,8.959c0,4.232,3.154,6.722,10.87,8.629l6.6,1.619c12.282,2.9,17.385,7.838,17.385,16.594,0,11.2-8.921,18.214-23.109,18.214-13.275,0-22.239-6.85-22.818-17.677Z" transform="translate(100.747 -17.871)" fill="#fff"/>
          <path id="Path_60" data-name="Path 60" d="M95.509,19.3V29.628h8.3v7.094h-8.3v24.06c0,3.738,1.662,5.48,5.31,5.48a27.991,27.991,0,0,0,2.947-.207v7.052a24.6,24.6,0,0,1-4.976.414c-8.836,0-12.282-3.319-12.282-11.783V36.723H80.163V29.628h6.346V19.3Z" transform="translate(140.307 -12.412)" fill="#fff"/>
          <path id="Path_61" data-name="Path 61" d="M86.065,43.692c0-13.732,8.088-22.361,20.7-22.361,12.654,0,20.7,8.629,20.7,22.361,0,13.77-8.008,22.361-20.7,22.361S86.065,57.462,86.065,43.692Zm32.275,0c0-9.42-4.317-14.979-11.576-14.979s-11.571,5.6-11.571,14.979c0,9.457,4.312,14.975,11.571,14.975S118.34,53.15,118.34,43.692Z" transform="translate(162.857 -4.652)" fill="#fff"/>
          <path id="Path_62" data-name="Path 62" d="M96.186,21.81h8.544v7.428h.207a10.41,10.41,0,0,1,10.5-7.885,13.816,13.816,0,0,1,3.069.334v8.379a12.523,12.523,0,0,0-4.025-.541,9.027,9.027,0,0,0-9.335,10.041V65.454H96.186Z" transform="translate(201.525 -4.595)" fill="#fff"/>
          <path id="Path_63" data-name="Path 63" d="M140.587,52.693c-1.205,7.923-8.921,13.36-18.793,13.36-12.7,0-20.577-8.507-20.577-22.154,0-13.69,7.923-22.568,20.2-22.568,12.075,0,19.668,8.295,19.668,21.528v3.069H110.261v.541A11.367,11.367,0,0,0,122,58.832a9.874,9.874,0,0,0,10.079-6.139ZM110.3,39.667h21.82a10.5,10.5,0,0,0-10.7-11.077A11.049,11.049,0,0,0,110.3,39.667Z" transform="translate(220.748 -4.652)" fill="#fff"/>
        </g>
      </g>
    </g>
    <g id="_Group_4" data-name="&lt;Group&gt;" transform="translate(171.954 40.672)">
      <g id="Group_11" data-name="Group 11">
        <path id="Path_64" data-name="Path 64" d="M46.061,8.757A12.725,12.725,0,0,1,59.595,23.049c0,9.189-4.966,14.471-13.534,14.471H35.671V8.757Zm-5.922,24.7h5.423a9.043,9.043,0,0,0,9.486-10.345,9.067,9.067,0,0,0-9.486-10.286H40.138Z" transform="translate(-35.671 -7.34)" fill="#fff"/>
        <path id="Path_65" data-name="Path 65" d="M41.719,21.371a10.283,10.283,0,1,1,20.473,0,10.285,10.285,0,1,1-20.473,0Zm16.067,0c0-4.705-2.114-7.457-5.823-7.457s-5.818,2.752-5.818,7.457c0,4.743,2.095,7.473,5.818,7.473s5.823-2.749,5.823-7.473Z" transform="translate(-12.749 -2.053)" fill="#fff"/>
        <path id="Path_66" data-name="Path 66" d="M70.691,31.9H66.247L61.761,15.915h-.339L56.954,31.9h-4.4L46.569,10.195h4.345L54.8,26.758h.32l4.463-16.563H63.7l4.463,16.563H68.5l3.87-16.563h4.284Z" transform="translate(5.967 -1.721)" fill="#fff"/>
        <path id="Path_67" data-name="Path 67" d="M53.854,10.544h4.124v3.448h.32a6.5,6.5,0,0,1,6.478-3.867A7.06,7.06,0,0,1,72.288,18.2V32.25H68V19.274c0-3.488-1.516-5.223-4.684-5.223a4.979,4.979,0,0,0-5.183,5.5v12.7H53.854Z" transform="translate(33.797 -2.07)" fill="#fff"/>
        <path id="Path_68" data-name="Path 68" d="M59.094,8.437h4.284v30.18H59.094Z" transform="translate(53.817 -8.437)" fill="#fff"/>
        <path id="Path_69" data-name="Path 69" d="M61.256,21.371a10.284,10.284,0,1,1,20.476,0,10.286,10.286,0,1,1-20.476,0Zm16.067,0c0-4.705-2.114-7.457-5.823-7.457s-5.818,2.752-5.818,7.457c0,4.743,2.095,7.473,5.818,7.473s5.823-2.749,5.823-7.473Z" transform="translate(61.894 -2.053)" fill="#fff"/>
        <path id="Path_70" data-name="Path 70" d="M66.4,26.095c0-3.907,2.909-6.16,8.073-6.48l5.88-.339V17.4c0-2.293-1.516-3.587-4.444-3.587-2.391,0-4.048.878-4.524,2.413H67.239c.438-3.728,3.945-6.12,8.869-6.12,5.442,0,8.511,2.709,8.511,7.294V32.233H80.5v-3.05h-.339a7.3,7.3,0,0,1-6.52,3.408,6.557,6.557,0,0,1-7.236-6.5ZM80.354,24.24V22.425l-5.3.339c-2.989.2-4.345,1.217-4.345,3.131,0,1.954,1.695,3.091,4.025,3.091a5.117,5.117,0,0,0,5.621-4.745Z" transform="translate(81.735 -2.053)" fill="#fff"/>
        <path id="Path_71" data-name="Path 71" d="M71.348,27.755c0-6.859,3.526-11.2,9.01-11.2a7.154,7.154,0,0,1,6.656,3.808h.32V8.437h4.284v30.18h-4.1V35.188h-.339a7.534,7.534,0,0,1-6.817,3.787C74.837,38.975,71.348,34.63,71.348,27.755Zm4.425,0c0,4.6,2.17,7.374,5.8,7.374,3.611,0,5.842-2.81,5.842-7.356,0-4.524-2.255-7.374-5.842-7.374-3.606,0-5.8,2.789-5.8,7.356Z" transform="translate(100.636 -8.437)" fill="#fff"/>
        <path id="Path_72" data-name="Path 72" d="M79.269,21.37a10.283,10.283,0,1,1,20.473,0,10.285,10.285,0,1,1-20.473,0Zm16.067,0c0-4.705-2.114-7.457-5.823-7.457s-5.818,2.752-5.818,7.457c0,4.743,2.095,7.473,5.818,7.473S95.335,26.095,95.335,21.37Z" transform="translate(130.71 -2.053)" fill="#fff"/>
        <path id="Path_73" data-name="Path 73" d="M84.669,10.544h4.124v3.448h.32a6.5,6.5,0,0,1,6.478-3.867A7.06,7.06,0,0,1,103.1,18.2V32.25H98.82V19.274c0-3.488-1.516-5.223-4.684-5.223a4.979,4.979,0,0,0-5.183,5.5v12.7H84.669Z" transform="translate(151.531 -2.07)" fill="#fff"/>
        <path id="Path_74" data-name="Path 74" d="M99.645,9.074v5.5h4.7v3.608h-4.7V29.347c0,2.274.937,3.269,3.069,3.269a14.3,14.3,0,0,0,1.634-.1v3.568a14.054,14.054,0,0,1-2.33.219c-4.764,0-6.661-1.676-6.661-5.861V18.185H91.911V14.577h3.446v-5.5Z" transform="translate(179.196 -6.004)" fill="#fff"/>
        <path id="Path_75" data-name="Path 75" d="M95.7,8.437h4.246V20.4h.339a6.679,6.679,0,0,1,6.619-3.888,7.151,7.151,0,0,1,7.476,8.092V38.617H110.1V25.66c0-3.467-1.615-5.223-4.642-5.223a5.071,5.071,0,0,0-5.465,5.5V38.617H95.7Z" transform="translate(193.691 -8.437)" fill="#fff"/>
        <path id="Path_76" data-name="Path 76" d="M120.236,26.373a8.812,8.812,0,0,1-9.406,6.28,9.86,9.86,0,0,1-10.027-11.2,10.012,10.012,0,0,1,10.008-11.341c6.04,0,9.683,4.126,9.683,10.943v1.495H105.167v.24A5.737,5.737,0,0,0,110.948,29a5.2,5.2,0,0,0,5.164-2.632Zm-15.069-7h10.964a5.237,5.237,0,0,0-5.343-5.623,5.551,5.551,0,0,0-5.621,5.623Z" transform="translate(212.817 -2.053)" fill="#fff"/>
      </g>
    </g>
  </g>
</svg>
