<svg id="Google_Play_Store_badge_EN" xmlns="http://www.w3.org/2000/svg" xmlns:xlink="http://www.w3.org/1999/xlink" width="653.458" height="192.823" viewBox="0 0 653.458 192.823">
  <defs>
    <linearGradient id="linear-gradient" x1="2.472" y1="1.035" x2="2.361" y2="1.005" gradientUnits="objectBoundingBox">
      <stop offset="0" stop-color="#00a0ff"/>
      <stop offset="0.007" stop-color="#00a1ff"/>
      <stop offset="0.26" stop-color="#00beff"/>
      <stop offset="0.512" stop-color="#00d2ff"/>
      <stop offset="0.76" stop-color="#00dfff"/>
      <stop offset="1" stop-color="#00e3ff"/>
    </linearGradient>
    <linearGradient id="linear-gradient-2" x1="1.95" y1="1.879" x2="1.69" y2="1.879" gradientUnits="objectBoundingBox">
      <stop offset="0" stop-color="#ffe000"/>
      <stop offset="0.409" stop-color="#ffbd00"/>
      <stop offset="0.775" stop-color="orange"/>
      <stop offset="1" stop-color="#ff9c00"/>
    </linearGradient>
    <linearGradient id="linear-gradient-3" x1="1.926" y1="0.946" x2="1.835" y2="0.793" gradientUnits="objectBoundingBox">
      <stop offset="0" stop-color="#ff3a44"/>
      <stop offset="1" stop-color="#c31162"/>
    </linearGradient>
    <linearGradient id="linear-gradient-4" x1="1.856" y1="2.093" x2="1.897" y2="2.025" gradientUnits="objectBoundingBox">
      <stop offset="0" stop-color="#32a071"/>
      <stop offset="0.068" stop-color="#2da771"/>
      <stop offset="0.476" stop-color="#15cf74"/>
      <stop offset="0.801" stop-color="#06e775"/>
      <stop offset="1" stop-color="#00f076"/>
    </linearGradient>
  </defs>
  <path id="Path_43" data-name="Path 43" d="M629.247,192.823H24.211A24.224,24.224,0,0,1,0,168.72V24.1A24.193,24.193,0,0,1,24.211,0H629.247a24.2,24.2,0,0,1,24.211,24.1V168.72A24.232,24.232,0,0,1,629.247,192.823Z" fill-rule="evenodd"/>
  <path id="Path_44" data-name="Path 44" d="M629.247,3.859A20.353,20.353,0,0,1,649.6,24.1V168.72a20.314,20.314,0,0,1-20.352,20.244H24.211A20.353,20.353,0,0,1,3.859,168.72V24.1A20.314,20.314,0,0,1,24.211,3.859Zm0-3.859H24.211A24.224,24.224,0,0,0,0,24.1V168.72a24.193,24.193,0,0,0,24.211,24.1H629.247a24.2,24.2,0,0,0,24.211-24.1V24.1A24.232,24.232,0,0,0,629.247,0Z" fill="#a6a6a6" fill-rule="evenodd"/>
  <path id="Path_45" data-name="Path 45" d="M1799.675,302.471a14.671,14.671,0,0,1-10.952-4.532,15.435,15.435,0,0,1-4.424-11.06,15.092,15.092,0,0,1,4.424-11.048,14.626,14.626,0,0,1,10.939-4.532,14.823,14.823,0,0,1,10.952,4.532,16.006,16.006,0,0,1,0,22.1A14.548,14.548,0,0,1,1799.675,302.471Zm-129.843,0a15.212,15.212,0,0,1-11-4.472,15.58,15.58,0,0,1,11-26.687,15.329,15.329,0,0,1,6.143,1.274,12.422,12.422,0,0,1,4.676,3.342l.289.349-3.258,3.2-.337-.4a9.26,9.26,0,0,0-7.561-3.258,10.451,10.451,0,0,0-7.537,3.077,11.685,11.685,0,0,0,0,16.012,11.02,11.02,0,0,0,15.279,0,8.326,8.326,0,0,0,2.212-5.013h-10.447v-4.5h14.93l.06.409a16.482,16.482,0,0,1,.217,2.26,13.534,13.534,0,0,1-3.727,9.978A14.545,14.545,0,0,1,1669.832,302.471Zm172.639-.637h-4.6l-14.1-22.564.12,4.063v18.489h-4.6V271.949h5.253l.144.228,13.26,21.254-.12-4.051V271.949h4.652Zm-77.394,0h-4.664V276.445h-8.09v-4.5h20.833v4.5h-8.09v25.389Zm-16.553,0h-4.652V271.949h4.652Zm-26.146,0h-4.652V276.445h-8.09v-4.5h20.833v4.5h-8.09Zm-15.688-.048h-17.84V271.949h17.84v4.5h-13.176v8.2H1705.4v4.448h-11.889v8.2h13.176Zm85.448-6.936a10.3,10.3,0,0,0,7.537,3.126,10.034,10.034,0,0,0,7.537-3.126,11.846,11.846,0,0,0,.012-15.916,10.313,10.313,0,0,0-7.537-3.126,9.989,9.989,0,0,0-7.525,3.126,11.863,11.863,0,0,0-.024,15.916Z" transform="translate(-1455.431 -238.686)" fill="#fff"/>
  <path id="Path_46" data-name="Path 46" d="M1777.18,705.768a20.509,20.509,0,1,0,20.568,20.508A20.187,20.187,0,0,0,1777.18,705.768Zm0,32.89c-6.215,0-11.565-5.145-11.565-12.43,0-7.393,5.362-12.43,11.565-12.43s11.564,5.037,11.564,12.43C1788.756,733.562,1783.395,738.659,1777.18,738.659Zm-44.876-32.89a20.509,20.509,0,1,0,20.568,20.508A20.187,20.187,0,0,0,1732.3,705.768Zm0,32.89c-6.215,0-11.565-5.145-11.565-12.43,0-7.393,5.362-12.43,11.565-12.43s11.565,5.037,11.565,12.43C1743.869,733.562,1738.519,738.659,1732.3,738.659Zm-53.4-26.627v8.679h20.833c-.637,4.869-2.248,8.463-4.712,10.927-3.053,3.053-7.766,6.371-16.073,6.371a23.143,23.143,0,0,1,0-46.282,22.24,22.24,0,0,1,15.688,6.215l6.155-6.155A30.267,30.267,0,0,0,1679,683c-17.563,0-32.3,14.305-32.3,31.821,0,17.563,14.726,31.821,32.3,31.821,9.485,0,16.6-3.1,22.228-8.944,5.734-5.734,7.55-13.825,7.55-20.352a26.836,26.836,0,0,0-.481-5.41h-29.4C1678.905,711.923,1678.905,712.032,1678.905,712.032Zm218.416,6.756c-1.719-4.6-6.912-13.067-17.563-13.067-10.555,0-19.331,8.307-19.331,20.508,0,11.516,8.679,20.508,20.352,20.508a20.355,20.355,0,0,0,17.082-9.1l-6.96-4.664c-2.308,3.426-5.518,5.674-10.074,5.674-4.6,0-7.826-2.092-9.966-6.215l27.421-11.36C1898.283,721.084,1897.321,718.788,1897.321,718.788Zm-27.962,6.852a11.256,11.256,0,0,1,10.711-11.949c3.594,0,6.588,1.767,7.609,4.34Zm-22.276,19.871h9V685.26h-9ZM1832.3,710.325h-.325a14.2,14.2,0,0,0-10.819-4.6c-10.23,0-19.655,9-19.655,20.569,0,11.516,9.377,20.412,19.655,20.412a14.165,14.165,0,0,0,10.819-4.664h.325v2.945c0,7.826-4.183,12.045-10.927,12.045-5.518,0-8.944-3.967-10.338-7.285l-7.826,3.27a19.575,19.575,0,0,0,18.152,12.105c10.555,0,19.5-6.215,19.5-21.374v-36.8h-8.511v3.378Zm-10.338,28.334c-6.215,0-11.408-5.193-11.408-12.37,0-7.237,5.193-12.478,11.408-12.478,6.155,0,10.927,5.3,10.927,12.478C1832.947,733.466,1828.126,738.659,1821.959,738.659Zm117.521-53.4h-21.53v60.251h9V722.695h12.538c9.966,0,19.763-7.225,19.763-18.693S1949.494,685.26,1939.48,685.26Zm.265,29.02h-12.8V693.6h12.8a10.341,10.341,0,1,1,0,20.677Zm55.6-8.619c-6.54,0-13.284,2.9-16.073,9.208l7.982,3.318c1.719-3.318,4.869-4.448,8.2-4.448,4.664,0,9.377,2.789,9.485,7.766v.637a20.169,20.169,0,0,0-9.377-2.308c-8.619,0-17.359,4.712-17.359,13.548,0,8.09,7.068,13.284,14.943,13.284,6.047,0,9.377-2.729,11.456-5.891h.325v4.664h8.679V722.358C2013.6,711.611,2005.622,705.66,1995.344,705.66Zm-1.13,33c-2.945,0-7.069-1.443-7.069-5.145,0-4.664,5.145-6.431,9.533-6.431a15.627,15.627,0,0,1,8.2,2.032A10.839,10.839,0,0,1,1994.214,738.659Zm51.055-31.712-10.338,26.135h-.325l-10.711-26.135h-9.689l16.073,36.533-9.16,20.3h9.377l24.728-56.837Zm-81.048,38.565h9V685.26h-9Z" transform="translate(-1448.744 -600.894)" fill="#fff" fill-rule="evenodd"/>
  <path id="Path_47" data-name="Path 47" d="M402.3,299.725c-1.395,1.5-2.2,3.8-2.2,6.8V413.122c0,3.005.805,5.3,2.248,6.744l.373.325,59.722-59.722v-1.334L402.673,299.4Z" transform="translate(-352.003 -263.408)" fill-rule="evenodd" fill="url(#linear-gradient)"/>
  <path id="Path_48" data-name="Path 48" d="M938.219,671.733,918.3,651.814v-1.394L938.219,630.5l.433.264,23.562,13.392c6.744,3.8,6.744,10.074,0,13.921l-23.562,13.392Z" transform="translate(-807.908 -554.705)" fill-rule="evenodd" fill="url(#linear-gradient-2)"/>
  <path id="Path_49" data-name="Path 49" d="M498.847,822.352,478.495,802,418.4,862.095c2.2,2.356,5.89,2.621,10.014.325l70.433-40.067" transform="translate(-368.103 -705.589)" fill-rule="evenodd" fill="url(#linear-gradient-3)"/>
  <path id="Path_50" data-name="Path 50" d="M498.847,328.1l-70.433-40.007c-4.123-2.356-7.826-2.032-10.014.325l60.095,60.035Z" transform="translate(-368.103 -252.042)" fill-rule="evenodd" fill="url(#linear-gradient-4)"/>
  <path id="Path_51" data-name="Path 51" d="M498.766,967.7l-69.952,39.743c-3.907,2.248-7.393,2.092-9.641.048l-.373.373.373.325c2.248,2.032,5.734,2.2,9.641-.048l70.433-40.007Z" transform="translate(-368.454 -851.369)" fill-rule="evenodd" opacity="0.2"/>
  <path id="Path_52" data-name="Path 52" d="M1107.555,808.263,1083.5,821.919l.433.433,23.562-13.392c3.378-1.923,5.037-4.448,5.037-6.96C1112.327,804.308,1110.608,806.5,1107.555,808.263Z" transform="translate(-953.248 -705.589)" fill-rule="evenodd" opacity="0.12"/>
  <path id="Path_53" data-name="Path 53" d="M412.314,288.637l94,53.4c3.053,1.719,4.773,3.967,5.037,6.263,0-2.512-1.659-5.037-5.037-6.96l-94-53.4c-6.744-3.859-12.214-.637-12.214,7.069v.7C400.1,287.988,405.57,284.826,412.314,288.637Z" transform="translate(-352.003 -251.888)" fill="#fff" fill-rule="evenodd" opacity="0.25"/>
</svg>
